HIERARCHY
ROOT Hips
{
	OFFSET 0.00000 0.00000 0.00000
	CHANNELS 6 Xposition Yposition Zposition Yrotation Zrotation Xrotation 
	JOINT Lumbar
	{
		OFFSET 0 0 0
		CHANNELS 3 Zrotation Xrotation Yrotation
		JOINT Neck
		{
			OFFSET 0.00 0.2701 0.00
			CHANNELS 3 Zrotation Xrotation Yrotation
			End Site
			{
				OFFSET 0.00 0.1379 0.00
			}
		}
		JOINT RightShoulder
		{
			OFFSET 0.0119 0.2289 0.1181
			CHANNELS 3 Zrotation Xrotation Yrotation
			JOINT RightElbow
			{
				OFFSET 0.00 -0.1475 0.00
				CHANNELS 2 Zrotation Yrotation
				JOINT RightWrist
				{
					OFFSET 0.00 -0.1605 0.00
					CHANNELS 2 Zrotation Xrotation
					End Site
					{
						OFFSET 0.0040 -0.1068 0.0006
					}
				}
			}
		}
		JOINT LeftShoulder
		{
			OFFSET 0.0119 0.2289 -0.1181
			CHANNELS 3 Zrotation Xrotation Yrotation
			JOINT LeftElbow
			{
				OFFSET 0.00 -0.1475 0.00
				CHANNELS 2 Zrotation Yrotation
				JOINT LeftWrist
				{
					OFFSET 0.00 -0.1605 0.00
					CHANNELS 2 Zrotation Xrotation
					End Site
					{
						OFFSET 0.0040 -0.1068 -0.0006
					}
				}
			}
		}
	}
	JOINT RightHip
	{
		OFFSET 0.0316 -0.0424 0.0458
		CHANNELS 3 Zrotation Xrotation Yrotation
		JOINT RightKnee
		{
			OFFSET 0.00 -0.2438 0.00
			CHANNELS 1 Zrotation
			JOINT RightAnkle
			{
				OFFSET 0.00 -0.2449 0.00
				CHANNELS 3 Zrotation Xrotation Yrotation
				End Site
				{
					OFFSET 0.1237 -0.0542 0.0051
				}
			}
		}
	}
	JOINT LeftHip
	{
		OFFSET 0.0316 -0.0424 -0.0458
		CHANNELS 3 Zrotation Xrotation Yrotation
		JOINT LeftKnee
		{
			OFFSET 0.00 -0.2438 0.00
			CHANNELS 1 Zrotation
			JOINT LeftAnkle
			{
				OFFSET 0.00 -0.2449 0.00
				CHANNELS 3 Zrotation Xrotation Yrotation
				End Site
				{
					OFFSET 0.1237 -0.0542 -0.0051
				}
			}
		}
	}
}
MOTION
Frames: 14
Frame Time: 0.02
-0.08646 0.5659 -0.15276 751.694 0 -11.65574 -7.44044 14.91353 -5.12596 -55.55905 6.14744 5.7462 49.36819 -25.48986 -32.37982 8.3979 80.39196 -0.80887 -4.17158 55.75634 15.74141 -25.37846 18.46193 -99.74902 -11.16164 8.80025 12.94122 5.11253 16.39128 -24.88477 -10.76017 -2.39764 -15.14203 1.05226 2.33013 -0.85934 -24.11251 3.96963 6.04012 11.65378
-0.08431 0.56612 -0.15392 753.3655 0 -11.41019 -8.0532 15.41867 -4.94008 -55.64302 6.32178 6.60127 49.62707 -26.5723 -32.11349 8.48732 80.21326 -0.84498 -4.24591 55.12597 14.71987 -25.21745 17.71475 -98.60503 -10.39224 8.47309 13.02147 4.92412 17.03933 -24.71023 -10.82701 -2.38533 -15.04039 0.77537 2.27051 -1.58581 -23.95773 3.83173 5.85128 10.87324
-0.082 0.5665 -0.15489 755.0308 0 -11.13008 -8.70653 15.93063 -4.75129 -55.67733 6.55222 7.60973 49.86701 -27.85133 -31.63277 8.60936 79.95842 -0.88387 -4.34179 54.40537 13.59405 -24.85991 16.84838 -97.23166 -9.51015 8.0823 13.02431 4.70296 17.69087 -24.35391 -10.92384 -2.36865 -14.86417 0.45757 2.22997 -2.2437 -23.69879 3.62458 5.59689 10.01972
-0.07978 0.56681 -0.15592 756.70572 0 -10.85985 -9.35013 16.44225 -4.56431 -55.71063 6.762 8.5487 50.09724 -29.05065 -31.25061 8.7165 79.74762 -0.92322 -4.42698 53.71305 12.51797 -24.58273 16.03912 -95.94401 -8.69005 7.71996 13.06122 4.49079 18.32397 -24.0763 -11.00801 -2.35546 -14.70458 0.16892 2.17742 -2.93562 -23.49908 3.44818 5.36976 9.19574
-0.07753 0.56714 -0.15707 758.35855 0 -10.61357 -9.96319 16.94402 -4.37888 -55.82788 6.95627 9.4933 50.39206 -30.21995 -30.86176 8.82454 79.49702 -0.95602 -4.51585 53.05498 11.42187 -24.33302 15.21278 -94.72465 -7.82311 7.35641 13.1033 4.30099 19.03056 -23.81378 -11.08825 -2.3364 -14.61191 -0.1631 2.13739 -3.62082 -23.24914 3.27211 5.15246 8.38624
-0.07528 0.56744 -0.15791 760.05396 0 -10.30895 -10.64573 17.46763 -4.18854 -55.76613 7.19356 10.45826 50.55493 -31.49247 -30.43913 8.93777 79.31156 -1.00256 -4.60215 52.31363 10.34883 -23.9853 14.39666 -93.31908 -7.02868 6.98199 13.11449 4.05838 19.58441 -23.47963 -11.18469 -2.32774 -14.37019 -0.41576 2.07716 -4.3 -23.07732 3.08017 4.89891 7.52782
-0.0732 0.56761 -0.15799 761.86023 0 -9.85744 -11.5272 18.04559 -3.97912 -55.1999 7.54152 11.45843 50.33056 -33.01836 -29.94735 9.06346 79.32031 -1.08976 -4.67734 51.33824 9.3439 -23.39347 13.62503 -91.37229 -6.44734 6.58697 13.07933 3.67038 19.70863 -22.96343 -11.30511 -2.35674 -13.66244 -0.42901 1.94685 -4.99899 -23.16909 2.858 4.5683 6.5751
-0.07111 0.56773 -0.15776 763.70926 0 -9.34743 -12.47344 18.64619 -3.76461 -54.46028 7.92684 12.46598 49.98041 -34.63202 -29.43557 9.19242 79.39794 -1.18996 -4.7492 50.28855 8.37533 -22.7165 12.87163 -89.26154 -5.94563 6.18481 13.01293 3.23186 19.67854 -22.38752 -11.44191 -2.39519 -12.8198 -0.36269 1.79719 -5.68963 -23.33956 2.62287 4.20276 5.57273
-0.06895 0.56786 -0.15765 765.54409 0 -8.8607 -13.37812 19.23833 -3.55696 -53.818 8.29383 13.46385 49.70766 -36.19992 -28.94957 9.31545 79.44689 -1.28197 -4.82147 49.29366 7.39926 -22.0919 12.11767 -87.28112 -5.41707 5.79028 12.94696 2.82192 19.72505 -21.85636 -11.58144 -2.42383 -12.08764 -0.33993 1.66313 -6.37132 -23.4591 2.39669 3.8483 4.57725
-0.06707 0.56804 -0.15758 767.36006 0 -8.38699 -14.33514 19.82124 -3.33345 -53.09985 8.67835 14.51063 49.34963 -37.82038 -28.37977 9.45707 79.48237 -1.38386 -4.89821 48.2103 6.3627 -21.39631 11.32309 -85.05834 -4.84507 5.37472 12.93338 2.38776 19.75012 -21.24061 -11.68419 -2.47447 -11.14906 -0.28843 1.50205 -7.10649 -23.63739 2.15662 3.51013 3.64148
-0.06461 0.56811 -0.15738 769.2214 0 -7.87235 -15.19842 20.43091 -3.13759 -52.49375 9.0222 15.43426 49.13839 -39.32357 -27.98994 9.56197 79.56295 -1.46804 -4.96575 47.29003 5.4855 -20.83879 10.62373 -83.30278 -4.38405 5.00242 12.80804 1.9916 19.77597 -20.79415 -11.86063 -2.48298 -10.60462 -0.276 1.39104 -7.72668 -23.71537 1.94146 3.13266 2.57537
-0.06053 0.56787 -0.15688 771.23282 0 -7.26263 -15.78215 21.08879 -3.05539 -52.28833 9.34957 16.19688 49.37325 -40.70531 -28.03777 9.54992 79.75402 -1.50144 -4.9983 46.88048 4.83891 -20.61641 10.14379 -82.89366 -4.20927 4.74953 12.3487 1.72092 19.90355 -20.78668 -12.29196 -2.3608 -11.22322 -0.40208 1.43507 -8.05322 -23.48086 1.81419 2.63799 1.11966
-0.05585 0.56754 -0.15626 773.28195 0 -6.61337 -16.26955 21.77592 -2.99478 -52.19354 9.61517 16.80232 49.75765 -41.9248 -28.27897 9.50313 79.98789 -1.51624 -5.02334 46.63021 4.3882 -20.5486 9.76728 -82.95882 -4.14398 4.54145 11.78378 1.48901 20.02614 -20.95916 -12.78693 -2.19807 -12.23598 -0.5676 1.52808 -8.26092 -23.1465 1.70958 2.10857 -0.45772
-0.05145 0.56726 -0.1557 775.29056 0 -5.97987 -16.80455 22.46368 -2.90025 -52.01545 9.83949 17.35831 50.06814 -43.06872 -28.47678 9.48209 80.20081 -1.5387 -5.05879 46.27992 3.98144 -20.45599 9.3692 -82.79712 -4.02976 4.31387 11.29023 1.23399 20.10984 -21.08028 -13.21556 -2.06197 -13.04102 -0.70799 1.59031 -8.50867 -22.86873 1.58479 1.60667 -1.95105
